<svg width="36" height="36" viewBox="0 0 36 36" fill="none" xmlns="http://www.w3.org/2000/svg">
<g clip-path="url(#clip0_420_2)">
<path d="M18 0C8.028 0 0 8.028 0 18C0 27.972 8.028 36 18 36C27.972 36 36 27.972 36 18C36 8.028 27.972 0 18 0ZM22.2 6.4995C22.395 6.4935 22.572 6.7035 22.4565 6.9165L17.8905 15.2865C17.8674 15.3292 17.8558 15.3771 17.8568 15.4256C17.8577 15.4741 17.8713 15.5216 17.8961 15.5633C17.9208 15.605 17.956 15.6396 17.9982 15.6636C18.0403 15.6877 18.088 15.7004 18.1365 15.7005H26.0265C26.2815 15.7005 26.4045 16.011 26.2185 16.185L12.3885 29.0925C12.141 29.3235 11.7735 28.998 11.9715 28.7235L18.5175 19.692C18.5475 19.6502 18.5654 19.6009 18.5693 19.5496C18.5732 19.4983 18.5628 19.4469 18.5394 19.401C18.5161 19.3552 18.4805 19.3167 18.4367 19.2897C18.3929 19.2627 18.3425 19.2483 18.291 19.248H9.9405C9.88494 19.2479 9.83067 19.2312 9.78458 19.2002C9.73848 19.1692 9.70264 19.1252 9.68159 19.0738C9.66054 19.0224 9.65523 18.9658 9.66635 18.9114C9.67746 18.857 9.70448 18.8071 9.744 18.768L22.014 6.5835C22.0632 6.53215 22.1289 6.50202 22.2 6.4995Z" fill="#61C9CB"/>
</g>
<defs>
<clipPath id="clip0_420_2">
<rect width="36" height="36" fill="white"/>
</clipPath>
</defs>
</svg>
