<svg width="36" height="36" viewBox="0 0 36 36" fill="none" xmlns="http://www.w3.org/2000/svg">
<path d="M6.63954 30.6011L4.11279 2.25H31.8868L29.3567 30.5966L17.9829 33.75L6.63954 30.6011Z" fill="#1572B6"/>
<path d="M18 31.3402L27.1913 28.7921L29.3535 4.5686H18V31.3402Z" fill="#33A9DC"/>
<path d="M18 14.8399H22.6013L22.9185 11.2793H18V7.80188H26.7188L26.6355 8.7345L25.7816 18.3173H18V14.8399Z" fill="white"/>
<path d="M18.0214 23.8703L18.0056 23.8748L14.1334 22.8285L13.8859 20.0554H10.395L10.8821 25.515L18.0045 27.4928L18.0214 27.4883V23.8703Z" fill="#EBEBEB"/>
<path d="M22.3052 18.1699L21.8867 22.8263L18.0088 23.8725V27.4905L25.1368 25.515L25.1897 24.9278L25.7938 18.1699H22.3052Z" fill="white"/>
<path d="M18.0121 7.80188V11.2793H9.61289L9.54314 10.4974L9.38452 8.7345L9.30127 7.80188H18.0121ZM17.9998 14.8399V18.3173H14.1759L14.1061 17.5354L13.9486 15.7725L13.8654 14.8399H17.9998Z" fill="#EBEBEB"/>
</svg>
