<svg width="36" height="36" viewBox="0 0 36 36" fill="none" xmlns="http://www.w3.org/2000/svg">
<path d="M6.63969 30.6011L4.11182 2.25H31.8881L29.3568 30.5966L17.9831 33.75L6.63969 30.6011Z" fill="#E44F26"/>
<path d="M18 31.3402L27.1913 28.7921L29.3535 4.5686H18V31.3402Z" fill="#F1662A"/>
<path d="M18 15.0829H13.3987L13.0815 11.5223H18V8.04492H9.28125L9.3645 8.97867L10.2184 18.5603H18V15.0829ZM18 24.1133L17.9843 24.1178L14.112 23.0727L13.8645 20.2995H10.3736L10.8608 25.758L17.9843 27.7358L18 27.7313V24.1133Z" fill="#EBEBEB"/>
<path d="M17.9878 15.0829V18.5603H22.2695L21.8668 23.0704L17.9878 24.1167V27.7347L25.1169 25.758L25.1687 25.1708L25.9854 16.0167L26.0709 15.0829H25.1338H17.9878ZM17.9878 8.04492V11.5223H26.387L26.4568 10.7415L26.6154 8.97867L26.6987 8.04492H17.9878Z" fill="white"/>
</svg>
