<svg width="36" height="36" viewBox="0 0 36 36" fill="none" xmlns="http://www.w3.org/2000/svg">
<g clip-path="url(#clip0_17_28)">
<path d="M0 0H36V36H0V0ZM9.46 30.08C10.26 31.78 11.84 33.18 14.54 33.18C17.54 33.18 19.6 31.58 19.6 28.08V16.52H16.2V28C16.2 29.72 15.5 30.16 14.4 30.16C13.24 30.16 12.76 29.36 12.22 28.42L9.46 30.08ZM21.42 29.72C22.42 31.68 24.44 33.18 27.6 33.18C30.8 33.18 33.2 31.52 33.2 28.46C33.2 25.64 31.58 24.38 28.7 23.14L27.86 22.78C26.4 22.16 25.78 21.74 25.78 20.74C25.78 19.92 26.4 19.28 27.4 19.28C28.36 19.28 29 19.7 29.58 20.74L32.2 19C31.1 17.08 29.54 16.34 27.4 16.34C24.38 16.34 22.44 18.26 22.44 20.8C22.44 23.56 24.06 24.86 26.5 25.9L27.34 26.26C28.9 26.94 29.82 27.36 29.82 28.52C29.82 29.48 28.92 30.18 27.52 30.18C25.86 30.18 24.9 29.32 24.18 28.12L21.42 29.72Z" fill="#F7DF1E"/>
</g>
<defs>
<clipPath id="clip0_17_28">
<rect width="36" height="36" fill="white"/>
</clipPath>
</defs>
</svg>
