<svg width="36" height="36" viewBox="0 0 36 36" fill="none" xmlns="http://www.w3.org/2000/svg">
<path d="M30.4753 17.7592C30.4753 16.9817 30.1665 16.236 29.6167 15.6861C29.0668 15.1363 28.3211 14.8275 27.5436 14.8275C27.4406 14.8273 27.3377 14.8326 27.2353 14.8432L31.2628 2.96545H14.1482L18.1701 14.8331C18.1116 14.8331 18.052 14.8275 17.9923 14.8275C17.2922 14.8267 16.615 15.0764 16.083 15.5316C15.551 15.9867 15.1995 16.6172 15.092 17.309C14.9845 18.0008 15.1281 18.7082 15.4969 19.3034C15.8656 19.8985 16.4351 20.342 17.1025 20.5537C16.4788 21.6275 15.7023 22.6048 14.7973 23.4551C13.6193 24.5812 12.2198 25.4498 10.6877 26.0055C9.82935 25.5987 9.15803 24.8804 8.81012 23.9965C8.46221 23.1126 8.46381 22.1294 8.81459 21.2467C8.90122 21.0442 8.98897 20.8395 9.07222 20.6347C9.7259 20.4808 10.307 20.1071 10.7183 19.5763C11.1296 19.0454 11.3463 18.3895 11.3321 17.7181C11.318 17.0466 11.0738 16.4004 10.6404 15.8874C10.2071 15.3744 9.6108 15.0256 8.95121 14.8993C8.29161 14.7731 7.60867 14.877 7.01651 15.1938C6.42434 15.5106 5.95882 16.021 5.69774 16.6397C5.43665 17.2584 5.39582 17.948 5.58206 18.5933C5.76829 19.2385 6.17032 19.8003 6.72097 20.1847C5.78515 21.8815 5.07094 23.6914 4.59584 25.5701C4.19759 27.972 4.59584 30.5201 6.67147 31.9612C11.509 35.3148 16.7616 29.8822 22.2988 28.5176C24.3058 28.0226 26.5086 28.1025 28.276 27.0787C28.9145 26.715 29.4651 26.2153 29.8888 25.6149C30.3124 25.0145 30.5987 24.3282 30.7273 23.6047C30.8449 22.9153 30.8228 22.2093 30.6622 21.5287C30.5016 20.848 30.2058 20.2066 29.7925 19.6425C30.2335 19.1154 30.4749 18.4498 30.4742 17.7626L30.4753 17.7592ZM20.9252 17.775V17.7648C20.9261 17.2603 20.7964 16.7641 20.5488 16.3246C20.3012 15.885 19.9441 15.5169 19.5122 15.2561L22.7117 8.77495L25.918 15.3157C25.5157 15.583 25.1859 15.9457 24.958 16.3715C24.7301 16.7973 24.6112 17.2729 24.6118 17.7558V17.82L20.9252 17.775Z" fill="#C63D14"/>
<path d="M31.1919 17.7593C31.1908 16.9092 30.8932 16.0861 30.3505 15.4319C29.8077 14.7776 29.0538 14.3331 28.2185 14.175L32.2618 2.25H13.1503L17.2003 14.1986C16.4933 14.3567 15.8493 14.7218 15.3507 15.2473C14.852 15.7729 14.5212 16.4351 14.4005 17.1494C14.2798 17.8638 14.3746 18.5979 14.6729 19.2582C14.9712 19.9184 15.4594 20.4748 16.0753 20.8564C15.5665 21.6122 14.9749 22.3088 14.3113 22.9331C13.2841 23.9159 12.0771 24.6913 10.7563 25.2169C10.1365 24.8571 9.66659 24.2864 9.4324 23.6091C9.19821 22.9317 9.2153 22.1927 9.48055 21.5269L9.52555 21.4222L9.6088 21.2254C10.3586 20.9654 11.0033 20.4682 11.4452 19.8091C11.8871 19.1499 12.1022 18.3647 12.0579 17.5724C12.0136 16.78 11.7123 16.0237 11.1997 15.4179C10.687 14.8121 9.99095 14.3899 9.21685 14.2152C8.44275 14.0404 7.63279 14.1227 6.90962 14.4495C6.18645 14.7763 5.58946 15.3298 5.20907 16.0263C4.82867 16.7227 4.68558 17.5242 4.80146 18.3093C4.91735 19.0943 5.2859 19.8203 5.8513 20.3771C5.7298 20.637 5.60155 20.9003 5.46992 21.1714C4.74051 22.5125 4.20996 23.9526 3.89492 25.4464C3.3718 28.5964 4.21555 31.1198 6.2698 32.5429C7.37257 33.3315 8.6952 33.7537 10.0509 33.75C12.4494 33.75 14.876 32.5451 17.2509 31.3661C18.9102 30.4637 20.6608 29.7404 22.4732 29.2084C23.1223 29.0486 23.7905 28.9519 24.4982 28.8495C25.9398 28.7343 27.3456 28.3416 28.6382 27.693C29.3671 27.2766 29.9956 26.705 30.4791 26.0188C30.9626 25.3325 31.2893 24.5483 31.436 23.7218C31.6751 22.3175 31.399 20.8741 30.6587 19.6571C31.0089 19.0857 31.1939 18.4283 31.193 17.7581L31.1919 17.7593ZM29.7598 17.7593C29.7598 18.1976 29.6298 18.6261 29.3863 18.9905C29.1428 19.355 28.7966 19.6391 28.3917 19.8068C27.9867 19.9745 27.5411 20.0184 27.1112 19.9329C26.6813 19.8474 26.2864 19.6363 25.9764 19.3264C25.6665 19.0164 25.4554 18.6215 25.3699 18.1916C25.2844 17.7617 25.3283 17.3161 25.496 16.9111C25.6637 16.5062 25.9478 16.16 26.3123 15.9165C26.6767 15.673 27.1052 15.543 27.5435 15.543C28.1312 15.5436 28.6945 15.7773 29.11 16.1928C29.5255 16.6083 29.7592 17.1716 29.7598 17.7593ZM30.2627 3.68213L26.6919 14.2121C26.539 14.2491 26.3887 14.2961 26.2419 14.3528L22.715 7.15275L19.1769 14.31C19.0229 14.2566 18.8654 14.2138 18.7055 14.1817L15.1472 3.68213H30.2627ZM17.9923 15.543C18.4306 15.543 18.8591 15.673 19.2236 15.9165C19.588 16.16 19.8721 16.5062 20.0398 16.9111C20.2076 17.3161 20.2515 17.7617 20.166 18.1916C20.0804 18.6215 19.8694 19.0164 19.5594 19.3264C19.2495 19.6363 18.8546 19.8474 18.4247 19.9329C17.9948 20.0184 17.5491 19.9745 17.1442 19.8068C16.7392 19.6391 16.3931 19.355 16.1496 18.9905C15.906 18.6261 15.776 18.1976 15.776 17.7593C15.7766 17.1716 16.0103 16.6083 16.4258 16.1928C16.8413 15.7773 17.4047 15.5436 17.9923 15.543ZM8.40505 15.5644C8.84357 15.5646 9.27217 15.6949 9.63661 15.9388C10.001 16.1827 10.2849 16.5293 10.4523 16.9346C10.6197 17.3399 10.6631 17.7858 10.577 18.2158C10.4909 18.6457 10.2792 19.0405 9.96865 19.3501C9.65809 19.6597 9.26267 19.8703 8.83242 19.9551C8.40217 20.0398 7.95644 19.9951 7.55164 19.8264C7.14683 19.6578 6.80116 19.3729 6.55836 19.0077C6.31557 18.6425 6.18656 18.2135 6.18767 17.775C6.18827 17.1874 6.42196 16.624 6.83746 16.2085C7.25295 15.793 7.81632 15.5593 8.40392 15.5587L8.40505 15.5644ZM30.0242 23.4776C29.913 24.0978 29.6668 24.6859 29.303 25.2003C28.9393 25.7147 28.4669 26.1428 27.9193 26.4544C26.7831 27.006 25.5529 27.3377 24.2934 27.432C23.5824 27.5344 22.8478 27.6401 22.1289 27.8179C20.2152 28.372 18.367 29.1313 16.6164 30.0825C13.0569 31.8499 9.97892 33.3765 7.08542 31.3684C4.96255 29.8969 5.06042 27.1744 5.30792 25.6826C5.59918 24.3251 6.08494 23.0167 6.75017 21.798L7.05392 21.1691C7.35611 21.2899 7.67323 21.3694 7.99667 21.4054C7.71034 22.4167 7.79035 23.4967 8.22258 24.4548C8.65481 25.4129 9.4115 26.1876 10.3592 26.6422L10.6348 26.784L10.9262 26.6805C12.5514 26.0939 14.0363 25.1742 15.2855 23.9805C16.1107 23.2042 16.8356 22.3278 17.4433 21.3716C18.2208 21.4899 19.0157 21.3536 19.7094 20.983C20.4031 20.6125 20.9584 20.0276 21.2925 19.3156C21.6265 18.6036 21.7214 17.8027 21.5629 17.0324C21.4045 16.2621 21.0012 15.5636 20.4133 15.0412L22.706 10.4051L25.0224 15.1301C24.3634 15.7653 23.9674 16.6252 23.9132 17.5389C23.859 18.4526 24.1506 19.3532 24.7299 20.0618C25.3093 20.7705 26.134 21.2352 27.0403 21.3636C27.9466 21.4921 28.868 21.2748 29.6214 20.7551C30.0392 21.5983 30.179 22.5522 30.0208 23.4799L30.0242 23.4776Z" fill="white"/>
</svg>
