<svg width="36" height="36" viewBox="0 0 36 36" fill="none" xmlns="http://www.w3.org/2000/svg">
<g clip-path="url(#clip0_206_4)">
<path d="M18 35.934C17.487 35.934 17.01 35.8005 16.5645 35.5695L12.021 32.9625C11.3385 32.5995 11.6805 32.4675 11.886 32.4015C12.807 32.1045 12.978 32.0385 13.935 31.509C14.037 31.443 14.175 31.476 14.277 31.542L17.7615 33.5565C17.8965 33.6225 18.069 33.6225 18.171 33.5565L31.8015 25.9305C31.9365 25.8645 32.0055 25.7325 32.0055 25.5675V10.3485C32.0055 10.1835 31.938 10.0515 31.8015 9.98551L18.171 2.39401C18.0345 2.32801 17.8635 2.32801 17.7615 2.39401L4.131 9.98551C3.9945 10.0515 3.9255 10.2165 3.9255 10.3485V25.5675C3.9255 25.6995 3.9945 25.8645 4.131 25.9305L7.854 28.011C9.87 29.001 11.133 27.846 11.133 26.691V11.67C11.133 11.472 11.304 11.274 11.544 11.274H13.2855C13.491 11.274 13.695 11.439 13.695 11.67V26.6895C13.695 29.298 12.2265 30.816 9.6645 30.816C8.8785 30.816 8.2635 30.816 6.522 29.991L2.9355 28.011C2.50333 27.7734 2.14242 27.4247 1.89007 27.0009C1.63772 26.5771 1.50306 26.0937 1.5 25.6005V10.3815C1.5 9.39151 2.046 8.46751 2.9355 7.97251L16.566 0.34501C17.0098 0.117439 17.5013 -0.00125122 18 -0.00125122C18.4987 -0.00125122 18.9902 0.117439 19.434 0.34501L33.066 7.97101C33.954 8.46601 34.5 9.39001 34.5 10.38V25.599C34.5 26.589 33.954 27.513 33.066 28.0095L19.434 35.634C18.9814 35.8302 18.4933 35.9313 18 35.931V35.934ZM22.2015 25.4685C16.224 25.4685 14.994 22.8285 14.994 20.583C14.994 20.385 15.165 20.187 15.4035 20.187H17.1795C17.385 20.187 17.5545 20.319 17.5545 20.517C17.829 22.266 18.615 23.124 22.236 23.124C25.1055 23.124 26.3355 22.497 26.3355 21.012C26.3355 20.154 25.9935 19.527 21.519 19.098C17.7945 18.7335 15.4725 17.943 15.4725 15.0705C15.4725 12.396 17.7945 10.8105 21.69 10.8105C26.0625 10.8105 28.215 12.264 28.488 15.4335C28.485 15.5408 28.4488 15.6446 28.3845 15.7305C28.317 15.7965 28.215 15.8625 28.1115 15.8625H26.3355C26.2492 15.8604 26.166 15.8303 26.0983 15.7767C26.0307 15.7232 25.9823 15.649 25.9605 15.5655C25.5495 13.7505 24.4905 13.155 21.69 13.155C18.546 13.155 18.171 14.211 18.171 15.003C18.171 15.9615 18.615 16.2585 22.851 16.7865C27.0525 17.3145 29.034 18.0735 29.034 20.9115C28.9995 23.8185 26.541 25.4685 22.2015 25.4685Z" fill="#086522"/>
</g>
<defs>
<clipPath id="clip0_206_4">
<rect width="36" height="36" fill="white"/>
</clipPath>
</defs>
</svg>
