<svg width="36" height="36" viewBox="0 0 36 36" fill="none" xmlns="http://www.w3.org/2000/svg">
<g clip-path="url(#clip0_449_4)">
<path d="M27 1.125H9C4.65076 1.125 1.125 4.65076 1.125 9V27C1.125 31.3492 4.65076 34.875 9 34.875H27C31.3492 34.875 34.875 31.3492 34.875 27V9C34.875 4.65076 31.3492 1.125 27 1.125Z" fill="white" stroke="#111111" stroke-width="3"/>
<path d="M23.6544 9.19677H19.9536C19.8213 8.78285 19.5609 8.42157 19.21 8.1653C18.8591 7.90902 18.4357 7.77087 18.0012 7.77087C17.5666 7.77087 17.1433 7.90902 16.7923 8.1653C16.4414 8.42157 16.181 8.78285 16.0488 9.19677H12.3456C11.6454 9.19677 10.9739 9.47495 10.4788 9.97002C9.98374 10.4651 9.70557 11.1366 9.70557 11.8368V25.5912C9.70557 26.2914 9.98374 26.9628 10.4788 27.4579C10.9739 27.9531 11.6454 28.2312 12.3456 28.2312H23.6544C24.3546 28.2312 25.026 27.9531 25.5211 27.4579C26.0163 26.9628 26.2944 26.2914 26.2944 25.5912V11.8368C26.2944 11.1366 26.0163 10.4651 25.5211 9.97002C25.026 9.47495 24.3546 9.19677 23.6544 9.19677ZM16.2336 9.67677C16.2894 9.67805 16.3439 9.65975 16.3877 9.62517C16.4315 9.59052 16.4619 9.54177 16.4736 9.48717C16.5498 9.13715 16.7436 8.8238 17.0226 8.5991C17.3015 8.37432 17.649 8.25185 18.0072 8.25185C18.3654 8.25185 18.7128 8.37432 18.9918 8.5991C19.2708 8.8238 19.4645 9.13715 19.5408 9.48717C19.5525 9.54177 19.5828 9.59052 19.6266 9.62517C19.6704 9.65975 19.725 9.67805 19.7808 9.67677H21.072V11.2488C21.072 11.4397 20.9961 11.6229 20.8611 11.7579C20.7261 11.8929 20.5429 11.9688 20.352 11.9688H15.66C15.469 11.9688 15.2859 11.8929 15.1509 11.7579C15.0159 11.6229 14.94 11.4397 14.94 11.2488V9.67677H16.2336ZM25.8144 25.5912C25.8144 26.164 25.5868 26.7135 25.1817 27.1185C24.7767 27.5236 24.2272 27.7512 23.6544 27.7512H12.3456C11.7727 27.7512 11.2233 27.5236 10.8183 27.1185C10.4131 26.7135 10.1856 26.164 10.1856 25.5912V11.8368C10.1856 11.2639 10.4131 10.7145 10.8183 10.3094C11.2233 9.90432 11.7727 9.67677 12.3456 9.67677H14.46V11.2488C14.46 11.5671 14.5864 11.8722 14.8114 12.0973C15.0365 12.3223 15.3417 12.4488 15.66 12.4488H20.34C20.6583 12.4488 20.9634 12.3223 21.1885 12.0973C21.4135 11.8722 21.54 11.5671 21.54 11.2488V9.67677H23.6544C24.2272 9.67677 24.7767 9.90432 25.1817 10.3094C25.5868 10.7145 25.8144 11.2639 25.8144 11.8368V25.5912Z" fill="#111111" stroke="black"/>
<path d="M23.1842 17.0208H18.9602C18.8965 17.0208 18.8355 17.0461 18.7905 17.0911C18.7455 17.1361 18.7202 17.1971 18.7202 17.2608C18.7202 17.3245 18.7455 17.3855 18.7905 17.4305C18.8355 17.4755 18.8965 17.5008 18.9602 17.5008H23.1842C23.2478 17.5008 23.3089 17.4755 23.3539 17.4305C23.3989 17.3855 23.4242 17.3245 23.4242 17.2608C23.4242 17.1971 23.3989 17.1361 23.3539 17.0911C23.3089 17.0461 23.2478 17.0208 23.1842 17.0208Z" fill="#111111" stroke="black"/>
<path d="M17.1842 17.0208H12.9602C12.8965 17.0208 12.8355 17.0461 12.7905 17.0911C12.7455 17.1361 12.7202 17.1971 12.7202 17.2608C12.7202 17.3245 12.7455 17.3855 12.7905 17.4305C12.8355 17.4755 12.8965 17.5008 12.9602 17.5008H17.1842C17.2478 17.5008 17.3089 17.4755 17.3539 17.4305C17.3989 17.3855 17.4242 17.3245 17.4242 17.2608C17.4242 17.1971 17.3989 17.1361 17.3539 17.0911C17.3089 17.0461 17.2478 17.0208 17.1842 17.0208Z" fill="#111111"/>
<path d="M17.1842 17.0208H12.9602C12.8965 17.0208 12.8355 17.0461 12.7905 17.0911C12.7455 17.1361 12.7202 17.1971 12.7202 17.2608C12.7202 17.3245 12.7455 17.3855 12.7905 17.4305C12.8355 17.4755 12.8965 17.5008 12.9602 17.5008H17.1842C17.2478 17.5008 17.3089 17.4755 17.3539 17.4305C17.3989 17.3855 17.4242 17.3245 17.4242 17.2608C17.4242 17.1971 17.3989 17.1361 17.3539 17.0911C17.3089 17.0461 17.2478 17.0208 17.1842 17.0208Z" fill="#111111" stroke="black"/>
<path d="M23.0644 22.6776H18.8284C18.7647 22.6776 18.7037 22.7029 18.6587 22.7479C18.6137 22.793 18.5884 22.8539 18.5884 22.9176C18.5884 22.9813 18.6137 23.0423 18.6587 23.0873C18.7037 23.1323 18.7647 23.1576 18.8284 23.1576H23.0644C23.128 23.1576 23.189 23.1323 23.2341 23.0873C23.2791 23.0423 23.3044 22.9813 23.3044 22.9176C23.3044 22.8539 23.2791 22.793 23.2341 22.7479C23.189 22.7029 23.128 22.6776 23.0644 22.6776Z" fill="#111111" stroke="black"/>
<path d="M17.0644 22.6776H12.8284C12.7647 22.6776 12.7037 22.7029 12.6587 22.7479C12.6137 22.793 12.5884 22.8539 12.5884 22.9176C12.5884 22.9813 12.6137 23.0423 12.6587 23.0873C12.7037 23.1323 12.7647 23.1576 12.8284 23.1576H17.0644C17.128 23.1576 17.189 23.1323 17.2341 23.0873C17.2791 23.0423 17.3044 22.9813 17.3044 22.9176C17.3044 22.8539 17.2791 22.793 17.2341 22.7479C17.189 22.7029 17.128 22.6776 17.0644 22.6776Z" fill="#111111"/>
<path d="M17.0644 22.6776H12.8284C12.7647 22.6776 12.7037 22.7029 12.6587 22.7479C12.6137 22.793 12.5884 22.8539 12.5884 22.9176C12.5884 22.9813 12.6137 23.0423 12.6587 23.0873C12.7037 23.1323 12.7647 23.1576 12.8284 23.1576H17.0644C17.128 23.1576 17.189 23.1323 17.2341 23.0873C17.2791 23.0423 17.3044 22.9813 17.3044 22.9176C17.3044 22.8539 17.2791 22.793 17.2341 22.7479C17.189 22.7029 17.128 22.6776 17.0644 22.6776Z" fill="#111111" stroke="black"/>
</g>
<defs>
<clipPath id="clip0_449_4">
<rect width="36" height="36" fill="white"/>
</clipPath>
</defs>
</svg>
