<svg width="36" height="36" viewBox="0 0 36 36" fill="none" xmlns="http://www.w3.org/2000/svg">
<g clip-path="url(#clip0_17_30)">
<mask id="mask0_17_30" style="mask-type:luminance" maskUnits="userSpaceOnUse" x="0" y="0" width="36" height="36">
<path d="M0 0H36V36H0V0Z" fill="white"/>
</mask>
<g mask="url(#mask0_17_30)">
<path d="M36 17.5335C36 15.1485 33.0135 12.888 28.434 11.487C29.4915 6.8205 29.022 3.1065 26.952 1.917C26.4504 1.63608 25.8827 1.49468 25.308 1.5075V3.1425C25.6455 3.1425 25.917 3.21 26.145 3.3345C27.1425 3.9075 27.576 6.0855 27.2385 8.889C27.1575 9.579 27.0255 10.305 26.8635 11.046C25.33 10.6765 23.7735 10.4094 22.2045 10.2465C21.2698 8.95693 20.25 7.73121 19.152 6.5775C21.5445 4.3545 23.79 3.1365 25.317 3.1365V1.5C23.298 1.5 20.6565 2.9385 17.985 5.433C15.315 2.955 12.672 1.53 10.6545 1.53V3.165C12.174 3.165 14.427 4.377 16.8195 6.585C15.792 7.665 14.7645 8.889 13.788 10.2465C12.2158 10.4076 10.6565 10.6772 9.1215 11.0535C8.95927 10.3512 8.83162 9.64133 8.739 8.9265C8.394 6.1215 8.82 3.9435 9.8115 3.3645C10.0305 3.2325 10.317 3.1725 10.6545 3.1725V1.5375C10.0395 1.5375 9.48 1.6695 8.997 1.947C6.9345 3.1365 6.4725 6.8415 7.536 11.4945C2.9715 12.9045 0 15.156 0 17.5335C0 19.9185 2.9865 22.179 7.566 23.5785C6.5085 28.2465 6.978 31.9605 9.048 33.1485C9.525 33.4275 10.083 33.5595 10.698 33.5595C12.717 33.5595 15.3585 32.121 18.03 29.6265C20.7 32.106 23.3415 33.5295 25.3605 33.5295C25.9397 33.5417 26.5117 33.3999 27.018 33.1185C29.0805 31.9305 29.5425 28.2255 28.479 23.5725C33.0285 22.1715 36 19.911 36 17.5335ZM26.445 12.639C26.16 13.6198 25.8296 14.5868 25.455 15.537C24.8417 14.3441 24.1684 13.1831 23.4375 12.0585C24.48 12.213 25.485 12.4035 26.4465 12.639H26.445ZM23.085 20.454C22.5356 21.4132 21.9456 22.3485 21.3165 23.2575C19.1149 23.4515 16.9006 23.4541 14.6985 23.265C13.4354 21.4608 12.3308 19.5506 11.397 17.556C12.3294 15.5567 13.4293 13.6398 14.685 11.826C16.8861 11.6316 19.0999 11.6285 21.3015 11.817C21.9105 12.69 22.506 13.623 23.0775 14.607C23.6355 15.567 24.1425 16.542 24.6045 17.526C24.1374 18.5219 23.6305 19.4987 23.085 20.454ZM25.455 19.5C25.851 20.4825 26.19 21.4665 26.4675 22.4205C25.5075 22.656 24.4935 22.854 23.445 23.007C24.1729 21.8721 24.8437 20.7017 25.455 19.5ZM18.015 27.33C17.3325 26.625 16.65 25.8405 15.975 24.981C16.635 25.011 17.31 25.0335 17.9925 25.0335C18.6825 25.0335 19.365 25.0185 20.0325 24.981C19.3725 25.8405 18.69 26.625 18.015 27.33ZM12.555 23.007C11.5436 22.8605 10.5395 22.6672 9.546 22.428C9.8175 21.4815 10.155 20.505 10.536 19.53C10.8375 20.115 11.154 20.703 11.499 21.291C11.844 21.8775 12.195 22.4505 12.555 23.007ZM17.9775 7.737C18.66 8.442 19.3425 9.2265 20.0175 10.086C19.3575 10.056 18.6825 10.0335 18 10.0335C17.31 10.0335 16.6275 10.0485 15.96 10.086C16.62 9.2265 17.3025 8.442 17.9775 7.737ZM12.5475 12.06C11.8198 13.1924 11.149 14.3603 10.5375 15.5595C10.1523 14.6032 9.81441 13.6285 9.525 12.639C10.485 12.411 11.499 12.213 12.5475 12.06ZM5.907 21.246C3.309 20.139 1.629 18.6855 1.629 17.5335C1.629 16.3815 3.309 14.9205 5.907 13.821C6.537 13.5495 7.227 13.3065 7.9395 13.08C8.358 14.517 8.9085 16.014 9.5895 17.5485C8.94655 18.9918 8.40279 20.4772 7.962 21.9945C7.26518 21.7787 6.57935 21.5289 5.907 21.246ZM9.855 31.731C8.8575 31.161 8.424 28.98 8.7615 26.178C8.8425 25.488 8.9745 24.7605 9.1365 24.0195C10.5735 24.372 12.144 24.6435 13.7955 24.8205C14.7303 26.11 15.75 27.3358 16.848 28.4895C14.4555 30.7125 12.21 31.9305 10.683 31.9305C10.3949 31.9336 10.1105 31.8656 9.855 31.7325V31.731ZM27.261 26.1405C27.606 28.944 27.18 31.1235 26.1885 31.7025C25.9695 31.8345 25.683 31.893 25.3455 31.893C23.826 31.893 21.573 30.6825 19.1805 28.473C20.2739 27.3241 21.2868 26.1012 22.212 24.813C23.7842 24.6519 25.3435 24.3823 26.8785 24.006C27.048 24.747 27.1785 25.458 27.261 26.1405ZM30.0855 21.246C29.4555 21.5175 28.7655 21.7605 28.053 21.987C27.6045 20.462 27.0532 18.9691 26.403 17.5185C27.078 15.993 27.6195 14.5035 28.0305 13.0725C28.7295 13.289 29.4178 13.5388 30.093 13.821C32.691 14.928 34.371 16.3815 34.371 17.5335C34.3635 18.6855 32.6835 20.1465 30.0855 21.246Z" fill="#00D8FF"/>
<path d="M17.9925 20.8875C18.882 20.8875 19.7351 20.5341 20.3641 19.9051C20.9931 19.2761 21.3465 18.423 21.3465 17.5335C21.3465 16.644 20.9931 15.7909 20.3641 15.1619C19.7351 14.5329 18.882 14.1795 17.9925 14.1795C17.103 14.1795 16.2499 14.5329 15.6209 15.1619C14.9919 15.7909 14.6385 16.644 14.6385 17.5335C14.6385 18.423 14.9919 19.2761 15.6209 19.9051C16.2499 20.5341 17.103 20.8875 17.9925 20.8875Z" fill="#00D8FF"/>
</g>
</g>
<defs>
<clipPath id="clip0_17_30">
<rect width="36" height="36" fill="white"/>
</clipPath>
</defs>
</svg>
