<svg width="36" height="36" viewBox="0 0 36 36" fill="none" xmlns="http://www.w3.org/2000/svg">
<path d="M27.5625 0H8.4375C3.7776 0 0 3.7776 0 8.4375V27.5625C0 32.2224 3.7776 36 8.4375 36H27.5625C32.2224 36 36 32.2224 36 27.5625V8.4375C36 3.7776 32.2224 0 27.5625 0Z" fill="#764ABC"/>
<path d="M23.4252 23.2874C24.4631 23.18 25.2505 22.2852 25.2146 21.2115C25.1789 20.1378 24.2841 19.2789 23.2105 19.2789H23.1389C22.0293 19.3146 21.1704 20.2451 21.2061 21.3546C21.242 21.8915 21.4567 22.3567 21.7787 22.6789C20.5619 25.0768 18.7009 26.8306 15.9092 28.298C14.0123 29.3001 12.0438 29.658 10.0754 29.4075C8.46479 29.1928 7.21225 28.4769 6.42475 27.2959C5.2795 25.5422 5.1722 23.6453 6.13843 21.7484C6.8185 20.3883 7.89217 19.3862 8.57223 18.8851C8.42907 18.4199 8.21434 17.6324 8.1069 17.0598C2.91742 20.8179 3.45418 25.9001 5.0289 28.298C6.21015 30.0875 8.60795 31.197 11.2565 31.197C11.9723 31.197 12.688 31.1254 13.4038 30.9464C17.9851 30.0517 21.4567 27.3316 23.4252 23.2874Z" fill="white"/>
<path d="M29.7244 18.8494C27.0044 15.664 22.9959 13.9104 18.4148 13.9104H17.8421C17.52 13.266 16.8399 12.8365 16.0884 12.8365H16.0168C14.9073 12.8724 14.0484 13.8029 14.0841 14.9125C14.1199 15.9861 15.0146 16.8451 16.0884 16.8451H16.16C16.9473 16.8093 17.6274 16.3083 17.9137 15.6282H18.5579C21.2779 15.6282 23.8548 16.4156 26.1812 17.9546C27.9707 19.1357 29.2592 20.6747 29.975 22.5357C30.5835 24.0389 30.5476 25.5063 29.9034 26.759C28.9013 28.6559 27.2192 29.6938 25.0001 29.6938C23.5685 29.6938 22.2086 29.2644 21.4926 28.9422C21.099 29.3001 20.3832 29.8727 19.8822 30.2306C21.4211 30.9464 22.9959 31.3401 24.4991 31.3401C27.9349 31.3401 30.476 29.4432 31.4424 27.5463C32.4804 25.4706 32.4088 21.8915 29.7244 18.8494Z" fill="white"/>
<path d="M11.543 23.8958C11.5789 24.9695 12.4736 25.8285 13.5474 25.8285H13.619C14.7283 25.7926 15.5874 24.8621 15.5516 23.7525C15.5158 22.6789 14.621 21.8199 13.5474 21.8199H13.4757C13.4042 21.8199 13.2968 21.8199 13.2253 21.8558C11.7578 19.422 11.1494 16.7735 11.3642 13.9103C11.5073 11.763 12.2231 9.90183 13.4758 8.36269C14.5136 7.03856 16.5179 6.39436 17.8779 6.3585C21.6717 6.28692 23.2823 11.0112 23.3896 12.9082C23.8549 13.0155 24.6423 13.266 25.1792 13.445C24.7497 7.64719 21.1707 4.64062 17.7348 4.64062C14.5136 4.64062 11.543 6.96698 10.3619 10.4029C8.71564 14.984 9.78931 19.3861 11.7935 22.8579C11.6146 23.1083 11.5072 23.5021 11.543 23.8958Z" fill="white"/>
</svg>
