<svg width="36" height="36" viewBox="0 0 36 36" fill="none" xmlns="http://www.w3.org/2000/svg">
<g clip-path="url(#clip0_206_14)">
<path d="M27.5625 0H8.4375C3.7776 0 0 3.7776 0 8.4375V27.5625C0 32.2224 3.7776 36 8.4375 36H27.5625C32.2224 36 36 32.2224 36 27.5625V8.4375C36 3.7776 32.2224 0 27.5625 0Z" fill="url(#paint0_linear_206_14)"/>
<path d="M1.61536 18.1517L8.68936 21.0182V23.0248L0.31514 19.1448V17.9675L1.61536 18.1517ZM8.68936 15.7973L1.62562 18.7045L0.31528 18.848V17.6604L8.68922 13.7907L8.68936 15.7973ZM33.9428 18.5612L26.664 15.7255V13.7701L35.4067 17.6399V18.8377L33.9428 18.5612ZM26.664 21.0592L33.9633 18.162L35.4067 17.947V19.1346L26.664 23.0145V21.0592Z" fill="white"/>
<path fill-rule="evenodd" clip-rule="evenodd" d="M24.7608 8.59206C24.7203 9.23415 24.4311 9.90465 24.5116 10.5289C25.0169 11.4224 26.129 11.5649 27.0464 11.6262C27.682 11.7398 27.674 11.3189 27.6314 10.8461L27.6391 8.5787C26.6797 8.58222 25.7199 8.56928 24.7608 8.59206ZM17.1951 10.3878C15.633 10.6531 14.0496 11.3995 12.7501 12.2981C11.7041 13.1122 13.6479 13.9011 14.3532 14.033C15.7721 14.0503 17.0305 13.0932 17.9626 12.0998C18.2669 11.6822 18.647 11.0427 18.2647 10.5586C17.9727 10.3054 17.5482 10.3667 17.1951 10.3878ZM20.519 12.6596C19.2347 12.9043 18.0127 13.4336 16.9314 14.1707C16.1387 14.4196 15.4854 15.2899 16.4676 15.726C17.4991 16.5479 18.6946 16.3465 19.6445 15.7916C20.5144 15.2746 21.454 14.6365 21.8565 13.6631C22.2366 12.5968 21.2559 12.5573 20.519 12.6596ZM24.1625 16.7916C23.9233 17.7906 22.9172 18.2448 22.382 19.0364C21.9444 19.6138 22.147 20.294 22.6453 20.7485C22.8879 21.2515 23.3131 21.5327 23.7691 21.0957C24.9436 20.2973 25.2685 18.742 25.2197 17.3943C25.3065 16.8377 24.6679 17.3409 24.1625 16.7916ZM19.693 18.668C18.1333 18.9349 16.5734 19.6948 15.2733 20.592C14.264 21.405 16.1649 22.1641 16.8759 22.2844C18.3211 22.2865 19.6102 21.3552 20.5239 20.2974C20.8418 19.8774 21.2269 19.0616 20.5976 18.7276C20.3162 18.6084 19.9896 18.6434 19.693 18.668Z" fill="#B956A6"/>
<path fill-rule="evenodd" clip-rule="evenodd" d="M12.75 12.2981C11.5505 12.778 10.3934 13.3608 9.25073 13.9711C9.03838 14.7607 9.20868 15.7385 9.1537 16.6043C9.14948 20.1644 9.15145 23.7246 9.15088 27.2846H11.7974C12.3318 26.7815 13.0012 26.4132 13.5817 25.9563C15.8168 24.3533 18.0512 22.7441 20.2833 21.1456C20.4476 21.2195 20.3424 20.1794 19.9821 20.9018C19.1284 21.7052 17.9952 22.366 16.7958 22.3014C16.1152 22.0776 15.018 21.6977 15.0112 20.8637C15.4903 20.2996 14.1272 21.159 13.7542 21.282C12.5418 21.8642 11.358 22.5143 10.143 23.0857C10.4349 22.7721 10.9811 22.4797 11.3684 22.1687C14.1349 20.1828 16.9007 18.1891 19.6739 16.2048C20.2072 15.8303 20.7225 15.4218 21.2723 15.0718C21.3225 15.2657 21.4168 14.1446 21.0078 14.8348C20.1742 15.6611 19.0498 16.2762 17.8639 16.2846C17.1969 16.0821 15.7763 15.598 16.0926 14.7368C16.2468 14.4346 14.6599 15.381 15.361 14.8473C16.1073 14.302 16.8595 13.7663 17.6116 13.2266C17.9914 13.1981 17.9106 11.7872 17.3945 12.6973C16.5275 13.4591 15.3884 14.156 14.1944 13.9908C13.5236 13.7977 12.7188 13.4238 12.475 12.7223C12.3943 12.5539 12.9267 12.2913 12.75 12.2981ZM17.7196 13.169C17.8401 13.0995 17.6531 13.3592 17.7196 13.169Z" fill="#FCCC44"/>
<path fill-rule="evenodd" clip-rule="evenodd" d="M25.2983 11.3555C24.9238 13.1437 24.5145 15.0152 24.1625 16.7916C25.1739 18.0662 25.2719 15.9864 25.4488 15.3983C25.7347 14.1691 26.0733 13.241 26.1091 11.9683C26.1851 11.5339 25.6746 11.271 25.2983 11.3555ZM26.4586 12.7578C26.5047 12.7922 26.427 12.941 26.4586 12.7578ZM25.2788 16.7676C25.3274 16.8723 25.3274 16.6627 25.2788 16.7676Z" fill="#62777F"/>
<path fill-rule="evenodd" clip-rule="evenodd" d="M25.9616 11.558C26.2772 13.3301 25.2319 15.4831 24.8901 17.154C25.6663 16.5828 26.2661 13.9911 26.4194 12.9766C26.4589 12.8606 26.5075 12.5687 26.5181 12.5581C26.5669 12.3119 27.0215 11.8946 27.0464 11.6262C27.3111 11.4394 25.7456 11.4095 25.9616 11.558ZM25.318 16.7676C25.2692 16.8723 25.2692 16.6627 25.318 16.7676Z" fill="#4E5E67"/>
<path fill-rule="evenodd" clip-rule="evenodd" d="M12.7763 12.3276C12.3387 12.7658 12.503 12.6588 12.8287 12.2944L12.7763 12.3276ZM17.5098 12.5446C17.0028 13.3064 15.1747 13.9434 14.9445 13.9928C16.0442 13.7867 17.0692 13.1026 17.7905 12.3013C17.6759 12.3524 17.6078 12.4723 17.5098 12.5446ZM12.4757 12.792C12.7489 13.449 13.7424 13.8855 14.2252 13.9873C13.5661 13.7749 12.7903 13.3983 12.4757 12.792ZM17.6802 13.1719C17.5423 13.3348 17.0509 13.5783 16.7919 13.8174C16.2363 14.2272 15.6615 14.608 15.1123 15.028C15.462 15.013 16.4869 14.2474 15.9615 15.0242C16.4067 15.7905 17.376 16.3233 18.2599 16.2747C19.4271 16.0914 20.5034 15.4461 21.2771 14.5487C20.3379 15.478 19.0962 16.3527 17.7221 16.2322C17.0571 16.0787 15.24 15.14 16.4555 14.482C16.8841 14.1294 17.6231 13.9448 17.7068 13.3252C17.6892 13.2479 17.8334 13.1724 17.6802 13.1719ZM14.3532 14.033C14.7954 14.0908 14.7954 13.9753 14.3532 14.033ZM21.2442 15.0912C19.4894 16.3138 17.76 17.5842 16.0203 18.8287C14.0487 20.2397 12.0856 21.656 10.1146 23.0659C10.8557 22.816 11.5982 22.328 12.3344 21.9909C13.3483 21.4546 14.4173 21.0309 15.366 20.3794C17.2416 19.2752 19.2253 18.2232 20.6679 16.5339C20.9828 16.1646 21.2985 15.5702 21.3126 15.1704C21.2671 15.1832 21.3016 15.0105 21.2442 15.0912ZM15.2733 20.592C14.9576 20.9488 14.8293 21.2037 15.157 20.7501C15.1512 20.8027 15.4229 20.4684 15.2733 20.592ZM20.0765 20.7627C19.2448 21.6397 18.0148 22.2722 16.8607 22.3148C18.1949 22.3245 19.3987 21.5325 20.3026 20.5982C20.2432 20.5265 20.123 20.7653 20.0765 20.7627ZM20.3306 21.0384C17.5365 23.0724 14.646 25.1822 11.8425 27.2088C12.284 27.3474 13.2457 27.4123 13.6846 26.8469C14.6184 26.2025 15.6682 25.7288 16.605 25.0757C17.9616 24.1954 19.4141 23.2332 20.1846 21.7537C20.2213 21.5553 20.494 21.1984 20.3306 21.0384ZM15.0131 21.1674C15.1428 21.7148 16.7636 22.3429 16.5878 22.2227C15.9902 22.0132 15.3973 21.6866 15.0131 21.1674Z" fill="#DC9624"/>
</g>
<defs>
<linearGradient id="paint0_linear_206_14" x1="0" y1="36" x2="36" y2="0" gradientUnits="userSpaceOnUse">
<stop stop-color="#DB7093"/>
<stop offset="1" stop-color="#F3B661"/>
</linearGradient>
<clipPath id="clip0_206_14">
<rect width="36" height="36" fill="white"/>
</clipPath>
</defs>
</svg>
