<svg width="36" height="36" viewBox="0 0 36 36" fill="none" xmlns="http://www.w3.org/2000/svg">
<g clip-path="url(#clip0_17_38)">
<mask id="mask0_17_38" style="mask-type:luminance" maskUnits="userSpaceOnUse" x="0" y="0" width="36" height="36">
<path d="M0 0H36V36H0V0Z" fill="white"/>
</mask>
<g mask="url(#mask0_17_38)">
<path d="M35.1435 1.3159e-06H0.855001C0.628103 0.000398686 0.410634 0.0908122 0.250334 0.251394C0.0900332 0.411976 9.70264e-07 0.629603 1.31822e-06 0.856501V35.145C-0.000196281 35.2575 0.0218229 35.369 0.064796 35.473C0.107769 35.577 0.170851 35.6715 0.250424 35.7511C0.329996 35.8306 0.424495 35.8937 0.528499 35.9367C0.632504 35.9797 0.743969 36.0017 0.856501 36.0015H35.145C35.2575 36.0015 35.3689 35.9793 35.4728 35.9363C35.5767 35.8933 35.6711 35.8302 35.7506 35.7506C35.8302 35.6711 35.8933 35.5767 35.9363 35.4728C35.9793 35.3689 36.0015 35.2575 36.0015 35.145V0.855001C36.0013 0.742524 35.979 0.631187 35.9357 0.527347C35.8925 0.423507 35.8293 0.329197 35.7496 0.249803C35.6699 0.170409 35.5754 0.107485 35.4714 0.0646241C35.3674 0.021763 35.256 -0.000195839 35.1435 1.3159e-06ZM21.429 19.239H17.1435V32.571H13.7145V19.239H9.429V16.2855H21.429V19.239ZM22.389 31.809V28.2465C22.389 28.2465 24.336 29.7135 26.6715 29.7135C29.007 29.7135 28.917 28.1865 28.917 27.9765C28.917 25.761 22.299 25.761 22.299 20.85C22.299 14.172 31.9425 16.8075 31.9425 16.8075L31.8225 19.9815C31.8225 19.9815 30.2055 18.903 28.3785 18.903C26.5515 18.903 25.893 19.773 25.893 20.7C25.893 23.0955 32.571 22.857 32.571 27.678C32.571 35.103 22.389 31.8105 22.389 31.8105V31.809Z" fill="#699BF7"/>
</g>
</g>
<defs>
<clipPath id="clip0_17_38">
<rect width="36" height="36" fill="white"/>
</clipPath>
</defs>
</svg>
